<svg width="612" height="978" viewBox="0 0 612 978" fill="none" xmlns="http://www.w3.org/2000/svg">
<path fill-rule="evenodd" clip-rule="evenodd" d="M612 48.3959L515.295 144.751L583.565 0.571533C579.301 1.71741 575.064 2.92566 570.857 4.19589C563.359 6.46024 555.983 8.9136 548.743 11.5499C488.693 33.4149 459 96.4781 459 160.384V349.582L495.906 294.401C494.982 287.449 494.505 280.354 494.505 273.149C494.505 199.544 544.277 137.565 612 119.029V48.3959Z" fill="#00A334"/>
<path fill-rule="evenodd" clip-rule="evenodd" d="M612 455C612 541.109 576.433 618.91 519.188 674.515C542.537 714.814 556 762.241 556 813C556 875.382 535.665 932.729 501.639 978H110.361C76.3346 932.729 56 875.382 56 813C56 762.241 69.4635 714.814 92.8116 674.515C35.567 618.91 0 541.109 0 455C0 286.001 137.001 149 306 149C474.999 149 612 286.001 612 455Z" fill="#00CC41"/>
<path fill-rule="evenodd" clip-rule="evenodd" d="M306 761C244.29 761 190.721 747.012 163.909 726.507C201.712 736.761 251.694 743 306.5 743C360.56 743 409.928 736.93 447.542 726.923C420.551 747.201 367.291 761 306 761ZM306 803.396C272.895 803.396 243.54 793.091 225.289 777.204C248.983 782.795 276.563 786 306 786C335.437 786 363.017 782.795 386.71 777.204C368.46 793.091 339.104 803.396 306 803.396Z" fill="#00A334"/>
<path fill-rule="evenodd" clip-rule="evenodd" d="M184.275 351.808C127.558 344.298 76.113 385.815 71.4769 442.839L70.5471 454.276C64.8659 524.154 120.044 584 190.152 584H421.848C491.957 584 547.135 524.154 541.454 454.276L540.457 442.021C535.846 385.304 484.903 343.862 428.435 350.89L324.492 363.827C307.567 365.934 290.442 365.867 273.535 363.628L184.275 351.808ZM459.2 497.479L386.702 511.288C375.537 513.415 366.155 502.836 369.601 492.005L372.505 482.878C386.779 438.015 430.412 409.185 477.279 413.648L481.342 414.035C491.507 415.004 497.755 425.625 493.662 434.98L470.135 488.756C468.152 493.29 464.06 496.553 459.2 497.479ZM152.733 497.479L225.231 511.288C236.396 513.415 245.778 502.836 242.332 492.005L239.428 482.878C225.153 438.015 181.521 409.185 134.654 413.649L130.591 414.036C120.425 415.004 114.178 425.625 118.27 434.98L141.797 488.756C143.781 493.29 147.872 496.553 152.733 497.479Z" fill="#00A334"/>
</svg>
